<svg xmlns="http://www.w3.org/2000/svg" viewBox="0 0 1259.66 1617.23"><defs><style>.cls-1{opacity:0.44;}.cls-2{fill:#040006;}</style></defs><title>LOGO VRM NEGRO</title><g id="Capa_2" data-name="Capa 2"><g id="Capa_3" data-name="Capa 3"><g class="cls-1"><path class="cls-2" d="M633.65,1440.48l-.52-77.14a561.55,561.55,0,0,0,62.57-3.92l9.14,76.6A639,639,0,0,1,633.65,1440.48Zm-10.7,0c-5.9,0-11.9-.2-17.83-.42L608,1363c5.23.2,10.51.33,15.69.38Zm-25-.74q-3.56-.17-7.1-.38l4.64-77c2.1.13,4.19.25,6.29.35Zm114-4.59-10.05-76.48c2.09-.28,4.17-.56,6.24-.86L719,1434.17Zm24.69-3.73-13-76q4.64-.79,9.25-1.66l14.33,75.79Q741.94,1430.5,736.64,1431.4ZM520,1431q-5.3-.91-10.55-1.94L524,1353.34c3.07.6,6.15,1.16,9.24,1.7Zm-28-5.56q-3.51-.78-7-1.6l17.64-75.1q3,.72,6.07,1.39ZM478,1422.19a626.37,626.37,0,0,1-68.3-21l26.89-72.3a551.13,551.13,0,0,0,59.87,18.44Zm338.47-9.94-22.82-73.69q3-.91,5.93-1.88l23.75,73.4C821.06,1410.81,818.77,1411.54,816.48,1412.25Zm13.63-4.41-24.56-73.13c5-1.66,9.93-3.41,14.79-5.19L847,1401.91C841.42,1404,835.75,1405.94,830.11,1407.84Zm26.89-9.71-27.87-71.94a553.44,553.44,0,0,0,57-25.91L922,1368.57A630.2,630.2,0,0,1,857,1398.13Zm-457.34-.82c-5.5-2.15-11.08-4.43-16.58-6.76l30.16-71c4.83,2,9.73,4,14.55,5.94Zm-23.16-9.6c-2.2-1-4.38-1.94-6.57-2.93l31.81-70.27q2.85,1.29,5.73,2.55Zm551.79-22.48-36.61-67.89q2.75-1.48,5.46-3l37.42,67.46Q931.44,1363.54,928.29,1365.23ZM950,1353l-39.28-66.39q4-2.38,8-4.84l40.41,65.7Q954.61,1350.23,950,1353Zm-643.36-1.24q-4.63-2.76-9.2-5.6l40.72-65.52q4,2.48,8,4.89Zm-24.24-15.23q-3-2-5.94-4l43.24-63.89c1.73,1.18,3.48,2.34,5.23,3.5Zm-11.84-8a635.34,635.34,0,0,1-56.27-43.93l50.82-58a557.85,557.85,0,0,0,49.41,38.57Zm747.19-21.82-47.59-60.7c1.65-1.3,3.3-2.6,4.94-3.92l48.21,60.21C1021.48,1303.71,1019.62,1305.18,1017.76,1306.64Zm11.12-8.91L980,1238.08c4-3.29,8-6.69,12-10.1l50.59,58.24C1038,1290.1,1033.46,1294,1028.88,1297.73Zm21.65-18.6L999,1221.75a558.25,558.25,0,0,0,44.19-44.45l57.69,51.21A634.16,634.16,0,0,1,1050.53,1279.13Zm-844.23-1.72c-4.38-4-8.77-8.07-13.06-12.18l53.38-55.68c3.77,3.61,7.63,7.21,11.48,10.69Zm-18.19-17.15c-1.7-1.67-3.39-3.34-5.07-5l54.63-54.46q2.22,2.22,4.45,4.41Zm917.47-37.14-58.3-50.51,4.11-4.79,58.82,49.9C1108.68,1219.53,1107.13,1221.33,1105.58,1223.12Zm16-19.18-60.2-48.23q2.94-3.66,5.81-7.39l61,47.19Q1124.93,1199.75,1121.57,1203.94Zm-986-2q-3.31-4.18-6.57-8.42l61.19-47q2.87,3.72,5.8,7.42Zm-17.22-22.73q-2.1-2.89-4.17-5.82l63-44.47q1.8,2.53,3.63,5.07Zm-8.24-11.66a633.22,633.22,0,0,1-37.12-61l68.06-36.32a553.46,553.46,0,0,0,32.57,53.5Zm1058.5-30.86-65.92-40.07q1.62-2.67,3.2-5.35l66.42,39.24Q1170.48,1133.61,1168.61,1136.69Zm7.3-12.34-66.84-38.52c2.6-4.51,5.17-9.12,7.64-13.7l67.91,36.57C1181.81,1113.94,1178.87,1119.2,1175.91,1124.35Zm13.73-25.15-68.53-35.4a552.59,552.59,0,0,0,25.55-57.22l72.11,27.4A631,631,0,0,1,1189.64,1099.2ZM68,1097.13c-2.67-5.23-5.33-10.6-7.89-16l69.62-33.2c2.25,4.72,4.59,9.43,6.93,14ZM57.12,1074.7q-1.5-3.21-2.95-6.45l70.35-31.65q1.29,2.87,2.6,5.71Zm1164.16-47.44-72.42-26.57q1.08-3,2.14-5.94l72.7,25.78C1222.91,1022.78,1222.1,1025,1221.28,1027.26Zm8.17-23.73L1156,979.88c1-3,1.9-6,2.81-9l73.83,22.34Q1231.1,998.39,1229.45,1003.53Zm-1200.8-2q-1.62-5.1-3.15-10.22l73.89-22.17q1.35,4.53,2.78,9Zm-8-27.43q-.93-3.45-1.81-6.92L93.52,948q.78,3,1.59,6.05Zm-3.55-13.84A631.78,631.78,0,0,1,4.1,890l76.53-9.68A552.05,552.05,0,0,0,92,941.93ZM1249.45,923.8,1173.54,910c.38-2.07.74-4.14,1.1-6.21l76,13Q1250.08,920.31,1249.45,923.8Zm2.39-14.06-76.19-12.1c.82-5.15,1.57-10.37,2.24-15.5l76.5,9.92C1253.63,897.92,1252.77,903.87,1251.84,909.74Zm3.84-28.32L1179,872.8a560.47,560.47,0,0,0,3.5-62.6h77.14A640.42,640.42,0,0,1,1255.68,881.42Zm-1252.84-2c-.64-5.89-1.21-11.87-1.69-17.78l76.9-6.2c.41,5.18.91,10.43,1.48,15.6ZM.62,854.5c-.16-2.38-.32-4.77-.45-7.16l77-4.45q.18,3.12.4,6.23Zm1181.89-47a559.86,559.86,0,0,0-3.79-62.58l76.61-9a639.89,639.89,0,0,1,4.33,71.21ZM77,780.16,0,776q.29-5.34.66-10.67l77,5.4Q77.28,775.45,77,780.16Zm1.9-25L2.16,747.56c.24-2.37.48-4.73.75-7.1l76.67,8.43C79.36,751,79.14,753.05,78.93,755.13Zm1.38-12.46L3.73,733.35a632.48,632.48,0,0,1,12.63-70.27l75,17.94A551.2,551.2,0,0,0,80.31,742.67ZM1178,738.73c-.27-2.07-.54-4.13-.83-6.18l76.38-10.75q.51,3.54,1,7.11ZM1174.72,717c-.53-3.09-1.08-6.18-1.65-9.25l75.82-14.18q1,5.26,1.89,10.56ZM93.65,671.9,18.94,652.67c1.48-5.72,3.06-11.52,4.7-17.23l74.13,21.34C96.33,661.8,94.94,666.88,93.65,671.9Zm5.89-21.12L25.66,628.57q1-3.44,2.1-6.85l73.63,23Q100.45,647.75,99.54,650.78ZM1158.07,647c-.62-2-1.26-4-1.9-6l73.47-23.53q1.08,3.38,2.12,6.76Zm-3.83-12c-1.66-5-3.4-9.93-5.18-14.8l72.45-26.48c2,5.55,4,11.22,5.9,16.85Zm-8.48-23.59A551.73,551.73,0,0,0,1120,554.4l68.37-35.73a627.25,627.25,0,0,1,29.42,65.08ZM123.48,586.13,53,554.85q2.18-4.92,4.44-9.79l70,32.49Q125.4,581.83,123.48,586.13Zm10.71-22.72-69-34.48q1.59-3.21,3.23-6.39L137,557.8C136.07,559.67,135.13,561.53,134.19,563.41Zm5.75-11.19-68.21-36A634.65,634.65,0,0,1,108.61,455l63.7,43.52A556,556,0,0,0,139.94,552.22ZM1117,548.87q-1.47-2.75-3-5.46l67.52-37.31c1.15,2.09,2.3,4.19,3.42,6.29Zm-10.73-19.06q-2.38-4-4.84-8.06l65.8-40.26q2.79,4.54,5.5,9.15Zm-928.6-39-62.95-44.59c3.43-4.84,7-9.7,10.54-14.44l61.65,46.36C183.8,482.32,180.69,486.58,177.69,490.83Zm13.05-17.68-61.14-47c1.46-1.89,2.92-3.78,4.4-5.66l60.58,47.76Q192.65,470.68,190.74,473.15Zm875-2.87c-1.29-1.65-2.59-3.3-3.9-4.93l60.3-48.13q2.21,2.79,4.4,5.59Zm-7.83-9.8c-3.25-4-6.65-8-10.09-12L1106.21,398c3.91,4.52,7.77,9.11,11.48,13.65Zm-16.29-19.05a558.38,558.38,0,0,0-44.37-44.28l51.33-57.58A635.71,635.71,0,0,1,1099.14,390ZM236.09,421.24,181.26,367q3.75-3.8,7.58-7.53l53.94,55.15Q239.41,417.89,236.09,421.24Zm18-17.44-52.36-56.66c1.75-1.62,3.52-3.23,5.29-4.83l51.67,57.28C257.2,401,255.66,402.38,254.14,403.8Zm9.3-8.4-51.06-57.83a635.67,635.67,0,0,1,56.07-44.14l44.22,63.2A558.76,558.76,0,0,0,263.44,395.4ZM992.59,393c-1.59-1.38-3.17-2.75-4.77-4.11l50-58.72q2.72,2.31,5.4,4.66Zm-16.85-14.1q-3.66-3-7.39-5.85l47.33-60.91q4.22,3.28,8.39,6.64ZM320.42,351.32l-43.15-63.95c4.91-3.31,9.93-6.6,14.92-9.76l41.32,65.14C329.14,345.52,324.73,348.4,320.42,351.32Zm18.38-11.89-40.56-65.61c2-1.25,4-2.48,6.07-3.71l39.84,66.05Q341.47,337.78,338.8,339.43Zm578-2q-2.67-1.62-5.37-3.23l39.38-66.33q3.07,1.83,6.14,3.7ZM906,331.06c-4.48-2.59-9.09-5.17-13.69-7.66L929,255.55c5.24,2.84,10.5,5.78,15.62,8.75Zm-22-12.08a552.88,552.88,0,0,0-57.16-25.66l27.54-72.06a631.55,631.55,0,0,1,65.17,29.26ZM399.51,306.92l-32.08-70.15c3.23-1.47,6.47-2.93,9.73-4.35l30.92,70.67Q403.78,305,399.51,306.92Zm23-9.88-28.89-71.52c2.22-.9,4.44-1.78,6.68-2.65l28,71.88C426.33,295.5,424.4,296.27,422.47,297Zm11.67-4.55-27.23-72.17A626.35,626.35,0,0,1,475.06,199l18.83,74.8A550,550,0,0,0,434.14,292.49Zm386.75-1.39c-2-.72-3.94-1.44-5.91-2.14l25.87-72.67c2.26.8,4.51,1.62,6.75,2.44Zm-20.79-7.2c-3-1-6-1.91-9-2.83l22.53-73.78q5.14,1.58,10.26,3.23ZM503,271.54l-17.55-75.11c5.78-1.35,11.65-2.64,17.46-3.82l15.39,75.59C513.24,269.24,508.09,270.36,503,271.54ZM524.48,267,510,191.23q3.51-.67,7-1.31l13.66,75.92Q527.55,266.4,524.48,267Zm205.78-.76-6.18-1.1,13.11-76q3.52.62,7,1.26ZM717.9,264.1c-5.14-.82-10.36-1.59-15.51-2.26l10.08-76.48c5.86.77,11.81,1.64,17.67,2.58Zm-24.84-3.41a560,560,0,0,0-62.59-3.63l.15-77.14a640,640,0,0,1,71.22,4.13Zm-100.22-2.44-5-77q5.34-.35,10.7-.61l3.72,77.06C599.1,257.87,596,258,592.84,258.25Zm25.09-1.07-1.59-77.13q3.57-.08,7.16-.1l.67,77.14Q621.05,257.11,617.93,257.18Z"/></g><path class="cls-2" d="M626,1322.21c-284.18,0-515.37-231.2-515.37-515.38S341.82,291.47,626,291.47s515.38,231.18,515.38,515.36S910.18,1322.21,626,1322.21Zm0-953.6c-241.64,0-438.23,196.58-438.23,438.22S384.36,1245.07,626,1245.07s438.24-196.59,438.24-438.24S867.64,368.61,626,368.61Z"/><path class="cls-2" d="M634,1608.32s-11.38-303.43-341.77-884.66C292.25,723.66,261,207,560,0c0,0-251.56,335.93-186.07,720.77C373.91,720.77,765,1093.44,634,1608.32Z"/><path class="cls-2" d="M346,769.85s-179.88,242.47-185.3,489.77c0,0,43.26-237.95,205.55-438.61Z"/><path class="cls-2" d="M850.74,315.67c34.12,118,54.62,259.9,31,409.09,0,0-366.48,374.74-243.72,892.47,0,0,10.68-305.12,320.22-889.58,0,0,29.3-519.49-250.85-727.65,0,0,89,127.54,143.38,315.67"/><path class="cls-2" d="M907.81,774.12s168.57,240.36,173.65,485.5c0,0-40.55-235.89-192.61-434.8Z"/></g></g></svg>