<svg xmlns="http://www.w3.org/2000/svg" viewBox="0 0 1382.41 1774.82"><defs><style>.cls-1{opacity:0.44;}.cls-2{fill:#fff;}</style></defs><title>LOGO VRM BLANCO</title><g id="Capa_2" data-name="Capa 2"><g id="Capa_3" data-name="Capa 3"><g class="cls-1"><path class="cls-2" d="M695.4,1580.85l-.58-84.66a615.39,615.39,0,0,0,68.67-4.3l10,84.06A703.28,703.28,0,0,1,695.4,1580.85Zm-11.75,0c-6.47-.06-13-.22-19.57-.46l3.19-84.6c5.74.21,11.53.35,17.22.41Zm-27.43-.81q-3.91-.19-7.8-.43l5.1-84.5c2.3.14,4.6.26,6.9.38Zm125.1-5-11-83.94q3.44-.45,6.84-.94l11.92,83.82Q785.21,1574.48,781.32,1575Zm27.1-4.1-14.29-83.44c3.39-.59,6.78-1.2,10.15-1.83L820,1568.79Q814.23,1569.89,808.42,1570.88Zm-237.8-.41q-5.8-1-11.58-2.13l16.06-83.12q5,1,10.13,1.87Zm-30.74-6.11q-3.86-.85-7.69-1.75l19.36-82.42q3.33.78,6.67,1.53Zm-15.29-3.58a690.12,690.12,0,0,1-75-23.09l29.5-79.35a605.78,605.78,0,0,0,65.71,20.24Zm371.46-10.92L871,1469q3.27-1,6.52-2.06l26.06,80.55Q899.82,1548.7,896.05,1549.86Zm15-4.84-27-80.25c5.43-1.82,10.89-3.74,16.23-5.7l29.21,79.45C923.41,1540.76,917.19,1543,911,1545Zm29.51-10.65-30.59-78.95A605.8,605.8,0,0,0,972.5,1427l39.36,75A692.27,692.27,0,0,1,940.51,1534.37Zm-501.91-.9c-6-2.36-12.15-4.86-18.19-7.42l33.09-77.92c5.31,2.25,10.68,4.44,16,6.52Zm-25.41-10.53q-3.62-1.59-7.21-3.22l34.91-77.12c2.09.94,4.18,1.88,6.28,2.8Zm605.56-24.67-40.18-74.52q3-1.62,6-3.28l41.07,74Q1022.2,1496.41,1018.75,1498.27Zm23.83-13.48-43.11-72.86c2.95-1.75,5.9-3.52,8.81-5.32l44.35,72.11Q1047.63,1481.8,1042.58,1484.79Zm-706-1.36q-5.08-3-10.09-6.15l44.68-71.9q4.38,2.71,8.8,5.36Zm-26.6-16.72q-3.27-2.16-6.51-4.36l47.44-70.11q2.86,1.93,5.74,3.84Zm-13-8.79a696.67,696.67,0,0,1-61.76-48.22L291,1346a612.79,612.79,0,0,0,54.22,42.33Zm820-24-52.24-66.62q2.73-2.14,5.42-4.3l52.92,66.08C1121,1430.75,1119,1432.37,1116.94,1434Zm12.2-9.78-53.7-65.46c4.42-3.62,8.84-7.35,13.14-11.09l55.52,63.91C1139.2,1415.81,1134.16,1420.06,1129.14,1424.19Zm23.76-20.41-56.58-63a613.27,613.27,0,0,0,48.49-48.79l63.31,56.2A697.56,697.56,0,0,1,1152.9,1403.78Zm-926.5-1.9c-4.81-4.35-9.63-8.85-14.33-13.36l58.58-61.11c4.14,4,8.38,7.91,12.6,11.74Zm-20-18.81q-2.8-2.74-5.57-5.52l59.95-59.77c1.62,1.62,3.25,3.24,4.89,4.84Zm1006.87-40.76-64-55.43q2.26-2.62,4.51-5.26l64.56,54.76C1216.71,1338.37,1215,1340.34,1213.32,1342.31Zm17.55-21-66.08-52.93q3.23-4,6.38-8.11l67,51.78Q1234.55,1316.67,1230.87,1321.26Zm-1082.09-2.2c-2.43-3.06-4.83-6.15-7.21-9.24l67.16-51.55q3.14,4.1,6.35,8.14Zm-18.9-24.94q-2.31-3.18-4.57-6.39l69.17-48.81c1.32,1.86,2.64,3.72,4,5.57Zm-9-12.79a694.5,694.5,0,0,1-40.74-66.91l74.69-39.85a609.81,609.81,0,0,0,35.75,58.7Zm1161.65-33.87-72.35-44q1.78-2.93,3.52-5.87l72.89,43.06C1285.21,1242.94,1283.85,1245.21,1282.49,1247.46Zm8-13.55-73.35-42.27c2.86-5,5.67-10,8.38-15l74.54,40.14C1297,1222.49,1293.75,1228.26,1290.49,1233.91Zm15.07-27.59-75.21-38.86a605.76,605.76,0,0,0,28-62.79l79.14,30.06A692.19,692.19,0,0,1,1305.56,1206.32ZM74.67,1204c-2.93-5.74-5.85-11.63-8.66-17.53l76.41-36.44c2.47,5.17,5,10.35,7.6,15.37Zm-12-24.61c-1.09-2.35-2.16-4.72-3.23-7.08l77.2-34.74q1.42,3.14,2.86,6.27Zm1277.61-52.07-79.48-29.16c.79-2.17,1.58-4.34,2.35-6.52L1343,1120C1342.07,1122.44,1341.19,1124.91,1340.29,1127.36Zm9-26-80.58-26q1.59-4.92,3.08-9.86l81,24.51Q1351.07,1095.7,1349.25,1101.31ZM31.45,1099.1q-1.78-5.6-3.47-11.22l81.09-24.32q1.49,5,3.05,9.89ZM22.62,1069q-1-3.8-2-7.6l82-21q.85,3.33,1.74,6.64Zm-3.89-15.19A690.21,690.21,0,0,1,4.5,976.74l84-10.61A603.4,603.4,0,0,0,101,1033.72Zm1352.47-40-83.3-15.12q.61-3.41,1.2-6.82l83.45,14.26Q1371.89,1010,1371.2,1013.82Zm2.62-15.43-83.61-13.28c.9-5.65,1.73-11.38,2.46-17l83.95,10.9C1375.79,985.42,1374.85,991.94,1373.82,998.39Zm4.22-31.08-84.13-9.46a616.68,616.68,0,0,0,3.84-68.7h84.66A702.1,702.1,0,0,1,1378,967.31ZM3.12,965.07c-.71-6.46-1.33-13-1.85-19.51l84.38-6.81c.46,5.69,1,11.45,1.63,17.12ZM.68,937.77c-.18-2.62-.35-5.23-.5-7.86L84.7,925q.19,3.43.44,6.84Zm1297.06-51.53a613.37,613.37,0,0,0-4.16-68.67l84.08-9.87a701.41,701.41,0,0,1,4.74,78.14Zm-1213.2-30L0,851.64q.32-5.86.73-11.71l84.44,5.92C84.93,849.29,84.72,852.73,84.54,856.19Zm2.08-27.48-84.24-8.3q.38-3.9.81-7.79l84.15,9.24C87.09,824.14,86.85,826.43,86.62,828.71ZM88.13,815l-84-10.22A693.69,693.69,0,0,1,18,727.69l82.34,19.69A606.76,606.76,0,0,0,88.13,815Zm1204.6-4.33c-.29-2.27-.59-4.52-.91-6.78l83.83-11.8q.55,3.9,1,7.8Zm-3.55-23.8c-.57-3.39-1.17-6.78-1.8-10.15l83.21-15.56q1.08,5.77,2.07,11.59ZM102.78,737.37l-82-21.1c1.62-6.28,3.35-12.64,5.16-18.91l81.35,23.42C105.71,726.28,104.19,731.87,102.78,737.37Zm6.46-23.18L28.16,689.82q1.14-3.77,2.31-7.51l80.8,25.26Q110.24,710.87,109.24,714.19Zm1161.68-4.11q-1-3.32-2.09-6.62l80.63-25.82q1.18,3.71,2.33,7.42ZM1266.71,697c-1.82-5.44-3.72-10.9-5.68-16.24l79.51-29.07c2.23,6.09,4.4,12.31,6.47,18.5Zm-9.3-25.9a608.2,608.2,0,0,0-28.32-62.64l75-39.2a693.49,693.49,0,0,1,32.29,71.41ZM135.52,643.24,58.13,608.92q2.4-5.4,4.88-10.74l76.78,35.65Q137.62,638.51,135.52,643.24Zm11.75-24.93L71.54,580.47q1.75-3.51,3.55-7l75.29,38.7C149.33,614.2,148.3,616.25,147.27,618.31Zm6.3-12.27L78.72,566.49a695.89,695.89,0,0,1,40.48-67.11l69.9,47.76A608.34,608.34,0,0,0,153.57,606Zm1072.3-3.69c-1.08-2-2.16-4-3.26-6l74.1-40.94q1.9,3.44,3.75,6.9Zm-11.78-20.91c-1.74-3-3.51-5.91-5.31-8.85L1281,528.41q3.06,5,6,10ZM195,538.66l-69.08-48.94c3.76-5.31,7.65-10.64,11.56-15.84l67.67,50.87C201.71,529.32,198.3,534,195,538.66Zm14.33-19.4-67.11-51.61q2.42-3.13,4.84-6.22l66.48,52.42C212.13,515.64,210.72,517.45,209.33,519.26Zm960.3-3.16c-1.41-1.81-2.84-3.61-4.27-5.41l66.17-52.81c1.62,2,3.23,4.08,4.83,6.13ZM1161,505.35c-3.57-4.37-7.29-8.8-11.07-13.17l64-55.37c4.29,5,8.52,10,12.59,15Zm-17.88-20.91a613.27,613.27,0,0,0-48.69-48.59l56.33-63.2A699.12,699.12,0,0,1,1206.24,428ZM259.09,462.28l-60.17-59.55q4.13-4.16,8.32-8.26L266.44,455Q262.74,458.6,259.09,462.28Zm19.81-19.14L221.44,381c1.93-1.78,3.86-3.55,5.81-5.3L284,438.52C282.26,440.05,280.58,441.59,278.9,443.14Zm10.21-9.21-56-63.46A698.82,698.82,0,0,1,294.61,322l48.53,69.37A609.94,609.94,0,0,0,289.11,433.93Zm800.2-2.63q-2.61-2.26-5.23-4.5l54.9-64.44q3,2.53,5.93,5.1Zm-18.49-15.47q-4-3.24-8.11-6.41l51.94-66.86q4.63,3.62,9.22,7.29ZM351.64,385.55l-47.35-70.18c5.39-3.63,10.9-7.24,16.37-10.71L366,376.15C361.21,379.19,356.37,382.35,351.64,385.55Zm20.18-13-44.52-72c2.21-1.37,4.43-2.72,6.66-4.07l43.73,72.49C375.72,370.1,373.77,371.3,371.82,372.51Zm634.27-2.15c-2-1.19-3.92-2.38-5.9-3.55L1043.4,294c2.26,1.33,4.51,2.69,6.75,4.05Zm-11.86-7c-4.92-2.85-10-5.68-15-8.41l40.29-74.45c5.76,3.11,11.52,6.34,17.14,9.59Zm-24.15-13.25a605.42,605.42,0,0,0-62.74-28.17l30.23-79.08a692.77,692.77,0,0,1,71.52,32.11ZM438.44,336.83l-35.21-77q5.32-2.43,10.69-4.77l33.92,77.56Q443.13,334.69,438.44,336.83ZM463.64,326l-31.71-78.5q3.66-1.47,7.33-2.9L470,323.47Q466.81,324.72,463.64,326Zm12.8-5-29.88-79.21a690.26,690.26,0,0,1,74.8-23.44L542,300.44A606.06,606.06,0,0,0,476.44,321Zm424.44-1.52q-3.24-1.2-6.49-2.35l28.4-79.76c2.48.89,5,1.78,7.4,2.69Zm-22.81-7.9q-4.92-1.6-9.89-3.12l24.72-81q5.65,1.72,11.26,3.54ZM552.05,298l-19.27-82.44c6.35-1.48,12.79-2.89,19.17-4.19l16.88,83C563.25,295.47,557.6,296.71,552.05,298Zm23.54-5-16-83.14q3.86-.74,7.71-1.43l15,83.32Q579,292.35,575.59,293Zm225.83-.82q-3.39-.63-6.78-1.21L809,207.54q3.87.66,7.72,1.38Zm-13.56-2.34c-5.65-.91-11.37-1.75-17-2.49l11.06-83.93c6.43.85,13,1.8,19.39,2.83Zm-27.27-3.75a616,616,0,0,0-68.69-4l.17-84.65A701.78,701.78,0,0,1,770.23,202Zm-110-2.68-5.51-84.48q5.86-.37,11.74-.66l4.08,84.56C657.48,283,654,283.19,650.61,283.41Zm27.53-1.17L676.4,197.6c2.62,0,5.23-.09,7.86-.12l.74,84.66Q681.57,282.17,678.14,282.24Z"/></g><path class="cls-2" d="M687,1451.05c-311.87,0-565.59-253.73-565.59-565.6S375.13,319.87,687,319.87s565.6,253.71,565.6,565.58S998.87,1451.05,687,1451.05Zm0-1046.53c-265.19,0-480.93,215.74-480.93,480.93s215.74,481,480.93,481,480.94-215.75,480.94-480.95S952.19,404.52,687,404.52Z"/><path class="cls-2" d="M695.8,1765s-12.49-333-375.08-970.87c0,0-34.3-567,293.82-794.17,0,0-276.07,368.67-204.19,791C410.35,791,839.57,1200,695.8,1765Z"/><path class="cls-2" d="M379.76,844.87S182.35,1111,176.4,1382.37c0,0,47.48-261.15,225.58-481.36Z"/><path class="cls-2" d="M933.65,346.43c37.43,129.52,59.94,285.23,34,449,0,0-402.18,411.26-267.46,979.44,0,0,11.72-334.85,351.43-976.26,0,0,32.15-570.12-275.3-798.56,0,0,97.68,140,157.36,346.43"/><path class="cls-2" d="M996.27,849.55s185,263.79,190.57,532.82c0,0-44.5-258.88-211.38-477.17Z"/></g></g></svg>